<svg height='100px' width='100px'  fill="#fffbe6" xmlns="http://www.w3.org/2000/svg" xmlns:xlink="http://www.w3.org/1999/xlink" xml:space="preserve" version="1.1" style="shape-rendering:geometricPrecision;text-rendering:geometricPrecision;image-rendering:optimizeQuality;" viewBox="0 0 60000 60000" x="0px" y="0px" fill-rule="evenodd" clip-rule="evenodd"><defs><style type="text/css">
   
    .fil0 {fill:#fffbe6;fill-rule:nonzero}
   
  </style></defs><g><path class="fil0" d="M26635 55183c32,125 218,271 499,415 331,169 770,306 1253,388 488,83 1014,108 1512,54 778,-85 1482,-364 1823,-925 -108,-1623 -340,-3243 -572,-4864 -482,-3363 -964,-6726 -365,-10213 2,-11 4,-22 7,-33 365,-2088 4075,-5027 7785,-7965 1497,-1186 2994,-2371 4261,-3491l-10778 6884c-186,118 -432,64 -550,-122 -42,-66 -63,-141 -62,-214 -14,-4670 2254,-8457 4449,-12122 1611,-2691 3182,-5314 3728,-8129 -18,-82 -42,-141 -70,-177 -2,-2 2,-3 4,-3l1 -1c-4,0 -16,5 -38,15 -73,37 -157,113 -247,229 -940,2294 -2015,4337 -3186,6268 -1179,1943 -2451,3767 -3779,5615 -129,179 -378,219 -556,91 -55,-39 -97,-90 -125,-147l0 0c-155,-314 -304,-620 -454,-928 -1635,-3363 -3362,-6913 -7409,-9539 1663,1437 3772,3809 5153,6853 1084,2389 1721,5190 1348,8279 -58,1642 -444,3250 -930,4530 -631,1660 -1494,2812 -2106,2879 -197,21 -376,-105 -427,-290 -1496,-4308 -3630,-6909 -5618,-9333 -1582,-1929 -3075,-3749 -4112,-6224 835,2187 2599,4875 4093,7151 1634,2489 2964,4515 2472,5241 -123,183 -372,231 -555,108 -7,-5 -14,-10 -21,-15 -919,-637 -3456,-681 -5189,-519 168,12 351,23 550,34 35,2 68,8 100,18 178,49 395,107 618,166 3347,886 7907,2093 8022,10741 0,9 0,18 -1,27l1 0 -530 9271zm-4260 -14911c-165,-57 -294,-42 -381,23 -58,43 -105,108 -139,189 -41,97 -63,214 -62,342 3,402 229,883 763,1227 658,-140 1078,-535 1241,-926 50,-118 74,-231 72,-331 -1,-76 -18,-143 -51,-192 -50,-74 -153,-121 -317,-122l-299 354c-142,168 -394,189 -563,47 -58,-49 -99,-112 -121,-180l-1 0 -142 -432zm-856 -618c344,-256 811,-313 1345,-38 78,35 144,95 187,173 56,-46 126,-78 203,-88 592,-76 1000,122 1226,459 121,180 182,395 186,626 3,209 -41,430 -132,646 -266,637 -947,1276 -1994,1435l0 -1c-84,13 -173,-1 -253,-46 -906,-507 -1286,-1313 -1291,-1992 -2,-236 42,-459 124,-655 90,-212 225,-391 399,-521zm-5036 -615c-404,356 -546,720 -494,1023 25,146 95,283 203,401 117,128 278,234 473,309 617,236 1537,145 2520,-553 382,-1219 179,-2210 -243,-2769 -127,-168 -270,-292 -416,-364 -129,-63 -262,-87 -390,-65 -260,44 -521,279 -720,751l313 795c80,205 -21,437 -227,517 -59,23 -120,31 -180,26l0 1 -839 -73zm-1282 1158c-102,-597 146,-1274 881,-1862 80,-75 190,-117 308,-107l358 31 -134 -340 0 0c-34,-87 -38,-186 -4,-281 316,-870 837,-1310 1392,-1404 295,-50 592,0 871,137 261,128 502,332 704,598 571,756 852,2068 324,3623l-1 0c-25,74 -71,141 -138,191 -1272,953 -2525,1064 -3383,736 -313,-120 -579,-298 -779,-519 -210,-230 -349,-504 -400,-804zm19151 1608c-145,-254 -329,-370 -512,-376 -110,-4 -227,29 -343,92 -129,71 -253,179 -362,319 -340,437 -506,1153 -211,1976 815,420 1600,355 2106,75 153,-85 277,-187 362,-299 73,-95 116,-194 124,-291 13,-159 -78,-335 -305,-502l-625 126c-216,43 -426,-97 -469,-313 -15,-75 -8,-149 17,-215l-1 0 218 -593zm-487 -1173c505,16 980,311 1276,968 49,96 59,210 19,319l-31 84 59 -12c103,-29 216,-17 315,42 612,369 849,853 811,1330 -20,254 -121,497 -286,713 -153,199 -361,376 -612,514 -738,408 -1876,501 -3008,-147l0 -1c-74,-42 -136,-109 -171,-194 -487,-1182 -241,-2246 267,-2900 175,-225 384,-405 609,-528 238,-131 495,-198 752,-189zm6105 -1302c-290,-118 -522,-92 -680,25 -95,70 -171,175 -225,302 -61,144 -93,315 -91,501 4,578 332,1270 1108,1751 941,-184 1544,-748 1778,-1306 72,-172 107,-338 105,-486 -2,-125 -31,-236 -89,-322 -94,-141 -286,-227 -584,-216l-431 510c-142,168 -394,189 -563,47 -58,-49 -99,-112 -121,-180l-1 0 -207 -627zm-1155 -615c417,-310 988,-377 1645,-36 98,45 179,129 215,239l37 111 76 -90 1 0c62,-74 151,-125 254,-138 726,-93 1223,144 1495,550 145,216 219,476 223,757 4,258 -51,532 -164,801 -336,804 -1199,1613 -2530,1814l0 -1c-84,13 -173,-1 -253,-46 -1149,-643 -1630,-1660 -1637,-2515 -2,-294 51,-571 154,-813 109,-258 273,-477 485,-634zm-3876 -515c-240,155 -351,308 -359,437 -3,47 12,94 42,138 41,60 110,115 202,162 346,172 931,178 1643,-155 307,-724 282,-1307 98,-1644 -49,-91 -107,-157 -169,-196 -44,-28 -93,-40 -141,-35 -134,13 -289,136 -440,395l161 555c61,211 -60,432 -272,494 -78,23 -157,20 -229,-2l-538 -148zm-1156 390c24,-413 302,-844 906,-1171l1 1c87,-47 192,-62 295,-34l28 8 -3 -10c-33,-97 -29,-206 20,-305 309,-625 733,-925 1147,-966 227,-23 446,32 641,154 178,112 332,278 447,489 298,548 356,1450 -128,2487l-1 -1c-36,78 -98,145 -180,187 -1024,526 -1929,501 -2488,223 -215,-107 -387,-254 -505,-427 -129,-189 -193,-406 -179,-634zm6489 -4868c-633,-173 -1076,-105 -1321,104 -109,93 -179,219 -210,367 -35,168 -20,365 47,578 223,711 991,1525 2389,2035 1392,-509 2159,-1318 2383,-2026 67,-213 82,-410 47,-577 -31,-147 -102,-273 -212,-366 -252,-214 -709,-281 -1363,-101l-546 949c-110,191 -353,256 -544,147 -66,-38 -117,-92 -151,-155l0 0 -520 -956zm-1840 -502c463,-396 1223,-536 2230,-216l0 1c95,30 179,95 230,189l259 477 254 -442c46,-98 131,-178 242,-213 1024,-325 1795,-186 2263,211 249,212 410,491 477,813 63,301 43,636 -66,980 -295,935 -1269,1987 -3011,2585l-6 2c-80,27 -170,29 -256,0 -1752,-600 -2728,-1660 -3024,-2600 -108,-343 -128,-677 -66,-978 67,-321 226,-599 472,-811zm8507 -4105c-580,-313 -1070,-298 -1420,-75 -187,119 -341,300 -454,523 -120,237 -193,520 -208,828 -48,951 439,2122 1712,2992 1629,-183 2727,-1051 3190,-1947 142,-274 221,-546 234,-795 12,-227 -30,-433 -130,-599 -179,-296 -562,-488 -1175,-479l-790 824c-153,159 -405,164 -564,11 -59,-57 -96,-127 -113,-201l-282 -1083zm-1848 -747c625,-399 1465,-430 2399,144l0 0c85,52 151,136 178,240l148 568 398 -414c68,-76 164,-126 273,-133 1040,-67 1718,290 2060,858 185,306 264,668 243,1052 -20,362 -129,745 -322,1120 -582,1127 -1954,2216 -3966,2392l0 -1c-85,7 -173,-12 -250,-62 -1634,-1055 -2254,-2554 -2192,-3778 21,-423 123,-816 293,-1150 177,-349 427,-637 738,-835zm-33558 2089c296,-657 771,-952 1276,-968 257,-8 514,59 752,189 224,123 433,303 609,528 508,654 754,1718 267,2900 -35,85 -96,152 -171,194l0 1c-1132,648 -2270,554 -3008,147 -251,-138 -459,-315 -612,-514 -166,-216 -266,-459 -286,-713 -38,-477 199,-961 811,-1330 98,-59 212,-71 315,-42l59 12 -31 -84c-40,-109 -29,-224 19,-319zm1301 -171c-183,6 -366,122 -512,376l218 593 -1 0c24,67 32,141 17,215 -43,216 -253,356 -469,313l-625 -126c-226,167 -317,343 -305,502 8,97 51,196 124,291 85,111 209,214 362,299 506,280 1291,345 2106,-75 295,-824 129,-1539 -211,-1976 -109,-140 -233,-248 -362,-319 -115,-63 -233,-96 -343,-92zm4794 -1322c-145,-254 -329,-370 -512,-376 -110,-4 -227,29 -343,92 -129,71 -253,179 -362,319 -340,437 -506,1153 -211,1976 815,420 1600,355 2106,75 153,-85 277,-187 362,-299 73,-95 116,-194 124,-291 13,-159 -78,-335 -305,-502l-625 126c-216,43 -426,-97 -469,-313 -15,-75 -8,-149 17,-215l-1 0 218 -593zm-487 -1173c505,16 980,311 1276,968 49,96 59,210 19,319l-31 84 59 -12c103,-29 216,-17 315,42 612,369 849,853 811,1330 -20,254 -121,497 -286,713 -153,199 -361,376 -612,514 -738,408 -1876,501 -3008,-147l0 -1c-74,-42 -136,-109 -171,-194 -487,-1182 -241,-2246 267,-2900 175,-225 384,-405 609,-528 238,-131 495,-198 752,-189zm-5462 -2126c-418,220 -613,469 -634,707 -11,128 29,262 112,391 99,154 256,300 459,425 697,429 1875,590 3198,75 415,-1227 190,-2280 -275,-2903 -144,-193 -308,-340 -481,-433 -155,-84 -313,-122 -463,-108 -273,26 -546,234 -760,671l431 999c87,203 -7,438 -209,525 -99,43 -206,42 -299,7l-1079 -354zm-1431 638c46,-532 419,-1048 1212,-1419 93,-50 205,-64 313,-28l408 134 -149 -345 1 0c-41,-95 -45,-206 -2,-309 350,-850 903,-1254 1489,-1311 312,-30 625,41 916,198 273,148 528,373 743,662 623,836 924,2238 324,3819 -37,99 -113,184 -218,229 -1652,707 -3179,495 -4088,-66 -306,-189 -549,-419 -712,-672 -179,-278 -264,-582 -237,-891zm2698 -14167c-454,-211 -795,-222 -1005,-99 -88,51 -154,132 -196,235 -49,121 -64,273 -43,446 74,592 563,1344 1593,1954 1176,-208 1899,-736 2176,-1261 81,-154 120,-301 116,-432 -3,-109 -37,-208 -103,-289 -158,-193 -492,-305 -1010,-264l-570 675c-142,168 -394,189 -563,47 -58,-49 -99,-112 -121,-180l-1 0 -274 -832zm-1405 -790c452,-263 1108,-269 1897,143 98,45 178,129 215,239l103 311 212 -251 1 0c62,-74 151,-125 254,-138 911,-117 1541,121 1878,532 182,222 277,488 285,776 7,266 -62,548 -207,823 -389,737 -1360,1469 -2897,1702l0 -1c-84,13 -173,-1 -253,-46 -1364,-763 -2015,-1793 -2119,-2623 -39,-308 -4,-595 96,-842 107,-266 289,-481 536,-626zm5159 -2810c-240,142 -354,287 -366,413 -5,46 8,93 35,136 39,62 104,119 192,168 335,183 912,210 1630,-92 329,-701 326,-1277 158,-1618 -45,-90 -99,-157 -158,-198 -42,-29 -88,-43 -135,-40 -131,8 -288,122 -446,369l138 556c53,214 -78,430 -292,483 -74,18 -148,14 -215,-7l0 1 -539 -171zm-1160 338c40,-404 325,-815 920,-1116 94,-54 209,-71 321,-36l19 6 -5 -20 1 0c-23,-93 -13,-195 37,-286 331,-608 763,-889 1176,-914 228,-14 443,49 632,178 172,117 317,288 424,504 273,552 295,1442 -219,2448 -39,82 -105,151 -194,192 -1033,480 -1929,421 -2473,123 -211,-116 -376,-268 -486,-443 -121,-193 -176,-410 -154,-636zm-985 9769c-290,-118 -522,-92 -680,25 -95,70 -171,175 -225,302 -61,144 -93,315 -91,501 4,578 332,1270 1108,1751 941,-184 1544,-748 1778,-1306 72,-172 107,-338 105,-486 -2,-125 -31,-236 -89,-322 -94,-141 -286,-227 -584,-216l-431 510c-142,168 -394,189 -563,47 -58,-49 -99,-112 -121,-180l-1 0 -207 -627zm-1155 -615c417,-310 988,-377 1645,-36 98,45 179,129 215,239l37 111 76 -90 1 0c62,-74 151,-125 254,-138 726,-93 1223,144 1495,550 145,216 219,476 223,757 4,258 -51,532 -164,801 -336,804 -1199,1613 -2530,1814l0 -1c-84,13 -173,-1 -253,-46 -1149,-643 -1630,-1660 -1637,-2515 -2,-294 51,-571 154,-813 109,-258 273,-477 485,-634zm4621 -3095c-652,214 -1001,529 -1095,856 -42,147 -32,300 27,448 66,167 193,331 375,478 603,490 1739,757 3247,398 919,-1241 1121,-2386 908,-3131 -64,-225 -165,-406 -292,-532 -112,-111 -249,-180 -400,-199 -346,-42 -786,163 -1252,697l71 1142c13,220 -155,409 -375,422 -76,4 -148,-13 -211,-46l0 1 -1003 -534zm-1863 637c171,-598 739,-1145 1774,-1445 101,-35 217,-30 319,24l518 276 -36 -588 0 0c-6,-95 23,-193 87,-273 698,-863 1439,-1183 2065,-1107 333,40 629,189 869,427 225,223 397,522 499,879 278,974 36,2437 -1128,3946l0 0c-52,68 -126,119 -216,142 -1851,480 -3295,123 -4084,-518 -288,-234 -495,-509 -612,-803 -125,-313 -147,-641 -55,-960zm29631 -1384c-351,-464 -815,-602 -1278,-508 -277,56 -559,191 -824,387 -274,203 -529,471 -742,787 -627,930 -870,2257 -155,3525 1472,608 2971,184 3927,-570 295,-232 536,-496 706,-769 158,-254 251,-511 262,-750 17,-358 -165,-699 -611,-951l-962 276c-212,60 -433,-63 -494,-275 -20,-71 -20,-142 -3,-209l174 -942zm-1438 -1289c813,-166 1619,96 2184,967 60,85 88,193 68,303l-92 498 494 -142 0 1c90,-26 189,-20 280,23 876,417 1229,1068 1196,1777 -18,380 -153,768 -381,1135 -216,347 -520,681 -890,972 -1179,930 -3046,1442 -4862,624l0 0c-71,-32 -133,-85 -177,-156 -982,-1609 -687,-3312 110,-4494 262,-389 582,-723 930,-981 357,-264 747,-448 1140,-528zm241 11067c-268,-157 -468,-187 -596,-125 -65,31 -119,94 -159,179 -54,115 -82,265 -80,439 6,620 377,1454 1231,2120 892,-221 1436,-761 1634,-1289 62,-166 88,-327 79,-473 -8,-126 -44,-236 -106,-320 -109,-147 -316,-234 -629,-214l-435 657c-122,184 -369,234 -553,113 -93,-62 -152,-156 -172,-258l-214 -829zm-940 -844c395,-190 915,-144 1509,259l-1 1c78,53 138,133 163,232l36 139 42 -64 0 0c59,-90 154,-155 269,-174 742,-121 1267,104 1564,507 156,212 244,467 262,742 17,255 -26,530 -129,804 -294,784 -1096,1580 -2398,1832l0 0c-103,20 -214,-1 -306,-67 -1185,-846 -1696,-2002 -1705,-2868 -3,-293 51,-561 155,-783 118,-252 299,-446 537,-560zm-34390 -2258c-319,-142 -553,-150 -695,-68 -54,32 -95,83 -122,148 -34,84 -44,191 -29,315 56,446 426,1014 1205,1483 893,-164 1440,-563 1649,-958 58,-110 86,-214 84,-305 -2,-69 -23,-131 -64,-181 -107,-131 -339,-207 -703,-184l-433 513c-142,168 -394,189 -563,47 -58,-49 -99,-112 -121,-180l-1 0 -208 -630zm-1095 -758c382,-223 932,-230 1587,110 98,45 178,129 215,239l37 111 76 -90 1 0c62,-74 151,-125 254,-138 757,-97 1284,105 1570,453 157,191 239,421 245,668 6,226 -52,464 -174,696 -321,608 -1115,1210 -2370,1400l0 -1c-84,13 -173,-1 -253,-46 -1113,-622 -1645,-1469 -1731,-2152 -32,-259 -3,-502 82,-712 92,-228 249,-414 462,-538zm29096 5451c-425,-210 -743,-222 -947,-100 -109,66 -193,176 -249,319 -66,170 -92,382 -73,623 62,816 624,1865 1816,2631 1237,-385 1957,-1185 2188,-1927 72,-232 95,-453 70,-647 -23,-173 -85,-323 -184,-436 -182,-205 -511,-305 -990,-221l-554 934c-112,190 -357,253 -547,141 -94,-55 -156,-143 -182,-240l-347 -1078zm-1356 -784c463,-278 1107,-277 1881,158l0 1c85,48 153,126 185,226l131 408 192 -323 1 0c53,-89 140,-158 249,-185 894,-216 1545,-7 1935,434 208,235 335,531 378,861 41,308 9,646 -98,987 -311,996 -1270,2065 -2904,2508l0 -1c-101,27 -212,15 -309,-43 -1544,-922 -2270,-2282 -2350,-3347 -25,-328 10,-635 101,-901 -1542,2709 -2869,5555 -3039,8801l10865 -6939c133,-98 318,-106 462,-8l546 372c23,16 45,35 66,56 151,161 143,413 -17,564 -1420,1338 -3267,2800 -5113,4263 -3598,2850 -7196,5699 -7495,7482 -1,8 -2,17 -3,25 -578,3365 -105,6666 368,9967 240,1673 480,3346 586,5041l-1 0c4,69 -9,140 -43,206 -461,901 -1435,1332 -2500,1448 -573,63 -1173,34 -1728,-60 -560,-95 -1080,-259 -1484,-466 -530,-271 -883,-635 -933,-1052l-1 -9c-2,-21 -3,-42 -2,-64l532 -9306c-113,-8023 -4331,-9139 -7427,-9959 -195,-52 -385,-102 -599,-161 -1241,-68 -1950,-176 -2264,-298 -870,-336 -773,-686 9,-1009 244,-101 674,-192 1209,-260 1569,-200 4163,-216 5615,303 -292,-715 -1269,-2203 -2410,-3942 -1660,-2529 -3647,-5556 -4394,-7944 -96,-266 -88,-582 8,-809 55,-130 138,-240 249,-315 131,-90 287,-128 463,-94 200,38 424,179 653,472 28,34 51,74 67,118 991,2721 2572,4648 4257,6702 1968,2400 4077,4970 5610,9171 332,-331 773,-1137 1178,-2202 461,-1212 826,-2732 880,-4277 -1,-20 0,-41 3,-62 354,-2928 -252,-5589 -1282,-7861 -1479,-3260 -3830,-5718 -5482,-7018l0 0c-23,-18 -45,-40 -64,-64 -147,-183 -250,-424 -254,-632 -4,-156 42,-302 148,-421 104,-117 251,-190 446,-197 228,-9 567,91 1044,372 11,6 23,12 34,19 4332,2754 6130,6452 7832,9952l158 324c1180,-1653 2309,-3294 3356,-5020 1156,-1906 2216,-3921 3141,-6181 13,-39 32,-77 58,-112 174,-239 367,-408 560,-504 183,-92 368,-121 544,-87 186,36 350,138 479,307 110,145 191,339 233,582 10,48 10,99 1,151 -558,2981 -2179,5687 -3842,8464 -324,541 -649,1084 -968,1632 87,-96 186,-178 297,-245zm-9432 7052c-286,-2 -463,66 -540,170 -28,38 -42,86 -41,138 2,73 28,158 80,246 196,334 683,658 1464,769 650,-437 947,-938 978,-1322 8,-103 -4,-191 -34,-257 -22,-48 -55,-84 -96,-106 -120,-62 -318,-45 -586,88l-169 553c-64,211 -286,329 -497,266 -73,-22 -136,-64 -183,-117l-378 -428zm-1180 -305c246,-332 714,-541 1398,-484l0 1c99,8 196,53 267,133l19 21 6 -20c27,-95 90,-181 182,-235 601,-354 1118,-373 1486,-182 205,106 359,272 455,481 88,191 125,414 106,653 -50,617 -491,1396 -1452,2000 -76,53 -170,80 -269,70 -1145,-120 -1889,-636 -2205,-1176 -122,-208 -185,-425 -190,-634 -5,-229 61,-445 197,-629zm-4042 -12024c-599,-146 -1032,-39 -1281,209 -119,119 -199,274 -238,452 -42,192 -36,410 23,639 182,713 856,1491 2123,1933 1352,-432 2121,-1252 2358,-1994 72,-224 92,-436 62,-622 -26,-163 -92,-303 -197,-409 -215,-216 -607,-305 -1179,-177l-521 794c-121,184 -368,235 -552,114 -54,-35 -96,-81 -126,-133l-1 0 -471 -807zm-1844 -356c467,-466 1228,-667 2220,-369l0 0c94,28 178,91 231,182l229 393 249 -379c51,-82 132,-146 233,-173 962,-263 1671,-80 2096,347 226,227 367,518 419,846 49,306 20,643 -90,987 -312,979 -1299,2049 -3010,2555l0 0c-74,22 -155,22 -234,-3 -1642,-531 -2525,-1571 -2771,-2535 -89,-350 -97,-693 -29,-1004 72,-326 226,-618 457,-849zm5213 6299c-636,-174 -1105,-59 -1389,224 -150,149 -254,347 -308,574 -58,243 -60,522 -2,817 180,906 931,1911 2375,2468 1527,-542 2384,-1590 2628,-2525 75,-288 90,-560 47,-796 -39,-213 -125,-396 -258,-530 -246,-248 -674,-345 -1285,-192l-581 981c-112,190 -357,253 -547,141 -70,-41 -123,-101 -156,-169l-523 -993zm-1952 -342c506,-504 1301,-710 2326,-377 106,27 200,97 254,201l273 519 289 -487c48,-92 132,-165 239,-198 1009,-305 1761,-115 2228,354 250,252 410,579 477,952 63,349 44,738 -60,1137 -308,1180 -1374,2495 -3259,3121 -87,35 -186,39 -282,5 -1829,-654 -2786,-1944 -3018,-3116 -80,-403 -74,-798 11,-1154 89,-372 265,-701 521,-956zm-695 -18131c-667,255 -1003,604 -1073,967 -38,198 1,409 107,618 119,235 319,464 588,671 901,693 2508,1083 4400,545 768,-1634 610,-3130 55,-4062 -173,-291 -385,-524 -618,-683 -214,-146 -443,-227 -669,-229 -422,-3 -867,269 -1246,900l451 1438c66,211 -52,434 -263,500 -104,32 -211,20 -301,-26l-1431 -639zm-1857 817c127,-661 674,-1262 1744,-1625l0 1c92,-31 195,-29 290,14l790 353 -238 -759 0 0c-31,-99 -23,-209 30,-308 554,-1029 1297,-1467 2034,-1462 392,3 773,132 1116,366 325,222 617,541 852,936 691,1160 889,3012 -101,4980l0 0c-47,94 -131,168 -239,202 -2240,695 -4187,218 -5287,-627 -363,-279 -640,-602 -813,-943 -185,-366 -252,-751 -179,-1128zm6208 5022c-425,-210 -743,-222 -947,-100 -109,66 -193,176 -249,319 -66,170 -92,382 -73,623 62,817 624,1865 1816,2631 1237,-385 1957,-1185 2188,-1927 72,-232 95,-453 70,-647 -23,-173 -85,-323 -184,-436 -182,-205 -511,-305 -990,-221l-554 934c-112,190 -357,253 -547,141 -94,-55 -156,-143 -182,-240l-347 -1078zm-1356 -784c463,-278 1107,-277 1881,158l0 1c85,48 153,126 185,226l131 408 192 -323 1 0c53,-89 140,-158 249,-185 894,-216 1545,-7 1935,434 208,235 335,531 378,861 41,308 9,646 -98,987 -311,996 -1270,2065 -2904,2508l0 -1c-101,27 -212,15 -309,-43 -1544,-922 -2270,-2282 -2350,-3347 -27,-357 17,-688 126,-969 120,-308 316,-556 583,-716zm7219 6917c-319,-142 -553,-150 -695,-68 -54,32 -95,83 -122,148 -34,84 -44,191 -29,315 56,446 426,1014 1205,1483 893,-164 1440,-563 1649,-958 58,-110 86,-214 84,-305 -2,-69 -23,-131 -64,-181 -107,-131 -339,-207 -703,-184l-433 513c-142,168 -394,189 -563,47 -58,-49 -99,-112 -121,-180l-1 0 -208 -630zm-1095 -758c382,-223 932,-230 1587,110 98,45 178,129 215,239l37 111 76 -90 1 0c62,-74 151,-125 254,-138 757,-97 1284,105 1570,453 157,191 239,421 245,668 6,226 -52,464 -174,696 -321,608 -1115,1210 -2370,1400l0 -1c-84,13 -173,-1 -253,-46 -1113,-622 -1645,-1469 -1731,-2152 -32,-259 -3,-502 82,-712 92,-228 249,-414 462,-538zm2825 -14105c-275,-43 -455,-4 -546,86 -33,33 -54,76 -60,125 -9,71 4,157 42,253 140,355 567,745 1311,971 701,-329 1066,-773 1154,-1143 24,-99 25,-185 5,-254 -14,-49 -40,-89 -77,-116 -107,-78 -300,-91 -579,-2l-249 515c-96,198 -334,282 -533,186 -69,-33 -124,-84 -162,-144l0 0 -305 -476zm-1109 -483c287,-284 769,-417 1419,-268 108,18 207,79 271,178l11 17 9 -18 1 0c42,-87 115,-159 212,-197 643,-256 1154,-196 1487,48 185,135 311,322 374,541 57,200 60,424 4,658 -143,601 -697,1301 -1740,1747 -80,35 -172,45 -263,21 -1104,-291 -1755,-910 -1983,-1486 -88,-221 -117,-443 -89,-650 30,-228 127,-431 288,-590zm-2545 4462c-673,-133 -1132,-28 -1374,212 -109,107 -174,245 -195,401 -24,178 7,383 93,602 286,723 1145,1512 2636,1937 1409,-632 2145,-1531 2324,-2284 54,-227 55,-434 5,-607 -44,-153 -129,-281 -252,-371 -281,-205 -764,-242 -1432,-4l-497 1030c-96,198 -334,282 -533,186 -69,-33 -124,-84 -162,-144l0 0 -614 -957zm-1936 -357c441,-436 1202,-635 2249,-390 107,18 207,79 271,178l317 494 256 -530 1 0c42,-87 115,-159 212,-197 1030,-410 1832,-326 2341,47 271,198 456,472 549,796 87,304 90,649 4,1010 -235,985 -1160,2141 -2911,2887 -80,35 -172,45 -263,21 -1850,-488 -2935,-1506 -3309,-2451 -136,-344 -182,-685 -140,-999 45,-335 187,-633 423,-867zm4514 5779c-679,107 -1074,364 -1218,671 -64,137 -78,291 -43,447 39,175 138,357 293,531 518,580 1597,1023 3143,907 1104,-1080 1485,-2179 1393,-2948 -28,-232 -98,-426 -204,-570 -94,-128 -218,-219 -364,-261 -335,-96 -801,37 -1347,491l-111 1135c-21,219 -215,380 -434,359 -76,-7 -146,-36 -203,-79l0 1 -906 -685zm-1940 334c266,-568 921,-1021 2004,-1149 98,-11 201,14 286,78l469 355 55 -562c4,-104 48,-207 132,-282 825,-741 1607,-939 2214,-765 322,92 591,286 789,558 187,256 310,579 354,948 120,1006 -350,2412 -1739,3717l0 0c-62,59 -144,98 -236,107 -1904,181 -3273,-400 -3950,-1158 -248,-277 -409,-582 -478,-890 -73,-327 -42,-655 99,-956zm9824 -6962c-806,-777 -1538,-1030 -2092,-905 -256,58 -479,201 -654,412 -188,228 -324,534 -391,899 -216,1177 260,2903 1859,4650 2334,336 4024,-237 4873,-1074 264,-261 441,-544 522,-827 76,-264 68,-530 -30,-775 -215,-538 -853,-1010 -1979,-1242l-1477 931c-186,117 -433,61 -550,-125 -44,-70 -64,-149 -61,-225l-20 -1719zm-2267 -1683c835,-188 1881,150 2948,1235l0 0c70,71 113,168 114,275l14 1188 1007 -635 0 0c81,-51 181,-73 283,-55 1525,276 2409,958 2729,1759 167,417 182,858 58,1291 -119,414 -366,817 -732,1177 -1016,1002 -2995,1691 -5669,1275 -93,-9 -183,-50 -252,-124 -1869,-1989 -2414,-4029 -2155,-5441 93,-504 286,-935 560,-1265 287,-347 659,-583 1094,-681zm9772 14767c-633,-173 -1076,-105 -1321,104 -109,93 -179,219 -210,367 -35,168 -20,365 47,578 223,711 991,1525 2389,2035 1392,-509 2159,-1318 2383,-2026 67,-213 82,-410 47,-577 -31,-147 -102,-273 -212,-366 -252,-214 -709,-281 -1363,-101l-546 949c-110,191 -353,256 -544,147 -66,-38 -117,-92 -151,-155l0 0 -520 -956zm-1840 -502c463,-396 1223,-536 2230,-216l0 1c95,30 179,95 230,189l259 477 254 -442c46,-98 131,-178 242,-213 1024,-325 1795,-186 2263,211 249,212 410,491 477,813 63,301 43,636 -66,980 -295,935 -1269,1987 -3011,2585l-6 2c-80,27 -170,29 -256,0 -1752,-600 -2728,-1660 -3024,-2600 -108,-343 -128,-677 -66,-978 67,-321 226,-599 472,-811zm-6836 -4761c3,0 5,0 2,-1l0 0 -1 1z"></path></g></svg>